# xmcd
#
# Track frame offsets:
#	150
#	16843
#	33774
#	52809
#	72631
#	92500
#	110915
#	132007
#	150345
#	170506
#	189139
#
# Disc length: 2696 seconds
#
# Revision: 1
# Processed by: cddbd v1.5.1PL2 Copyright (c) Steve Scherf et al.
# Submitted via: audiograbber 1.83.01
#
DISCID=7e0a860b
DTITLE=DEEN - Andjeo sa greskom
DYEAR=2005
DGENRE=Pop/Funk
TTITLE0=Party
TTITLE1=Sexy Chica
TTITLE2=Sada nema nazad
TTITLE3=Na Na Na
TTITLE4=Znam
TTITLE5=Pogresno
TTITLE6=Nek uzmu mi dusu
TTITLE7=Da li znas
TTITLE8=Andjeo sa greskom
TTITLE9=Sex and Revolution
TTITLE10=In The Disco
EXTD=
EXTT0=
EXTT1=
EXTT2=
EXTT3=
EXTT4=
EXTT5=
EXTT6=
EXTT7=
EXTT8=
EXTT9=
EXTT10=
PLAYORDER=
